<svg width="602" height="692" viewBox="0 0 602 692" fill="none" xmlns="http://www.w3.org/2000/svg">
<path opacity="0.15" d="M201 1H1V191.828M201 1V191.828M201 1H401M201 191.828H1M201 191.828H401M1 191.828V346M401 1H601V191.828M401 1V191.828M601 191.828H401M601 191.828H600.5C600.5 252.036 600.5 285.792 600.5 346M601 191.828L600.5 346M201 346H1M201 346V432.25M201 346H401M1 346V432.25M601 346H401M601 346V432.25M601 346H600.5M401 346V432.25M201 432.25H1M201 432.25V691M201 432.25H401M1 432.25V691H201M201 691H401M601 432.25H401M601 432.25V691H401M401 432.25V691" stroke="url(#paint0_radial_3714_249)" strokeOpacity="0.8" strokeWidth="2"/>
<defs>
<radialGradient id="paint0_radial_3714_249" cx="0" cy="0" r="1" gradientUnits="userSpaceOnUse" gradientTransform="translate(301 302.5) rotate(90) scale(368.5 350.062)">
<stop/>
<stop offset="1" stopOpacity="0"/>
</radialGradient>
</defs>
</svg>
