<svg width="899" height="716" viewBox="0 0 899 716" fill="none" xmlns="http://www.w3.org/2000/svg">
<path d="M877.724 572.632C842.899 635.013 763.731 665.442 663.042 663.535C562.449 661.632 440.948 627.43 322.453 561.277C203.958 495.121 111.082 409.642 56.6765 325.014C2.21571 240.299 -13.4254 156.942 21.4001 94.5633C56.2257 32.1828 135.392 1.75428 236.083 3.65939C336.674 5.56265 458.175 39.7653 576.67 105.918C695.165 172.074 788.041 257.553 842.446 342.181C896.908 426.896 912.55 510.253 877.724 572.632Z" stroke="url(#paint0_linear_3895_185)" strokeWidth="4.13213"/>
<path d="M58.8316 103.736C87.358 103.736 110.483 80.6111 110.483 52.0847C110.483 23.5583 87.358 0.433105 58.8316 0.433105C30.3053 0.433105 7.18005 23.5583 7.18005 52.0847C7.18005 80.6111 30.3053 103.736 58.8316 103.736Z" fill="#3BCEA2"/>
<path d="M56.3057 36.6363V70.3702C56.3051 71.417 55.9349 72.4294 55.2607 73.231C54.5863 74.0306 53.6512 74.5678 52.6201 74.7455C51.5887 74.9252 50.5276 74.7331 49.6232 74.2062C48.7189 73.6794 48.0297 72.8509 47.677 71.8654L42.2553 56.3341M42.2553 56.3341C40.1119 55.4228 38.3492 53.8013 37.2653 51.7396C36.1816 49.6779 35.8434 47.305 36.3081 45.0226C36.7727 42.7403 38.0116 40.6887 39.815 39.2147C41.6183 37.7408 43.8757 36.9352 46.2047 36.9342H50.8311C61.1845 36.9342 70.0862 33.818 73.9826 29.3582V64.7133C70.0862 60.2535 61.187 57.1372 50.8311 57.1372H46.2047C44.8477 57.1391 43.5044 56.8643 42.2553 56.3341ZM73.9826 54.6119C75.9918 54.6119 77.9188 53.8135 79.3395 52.3929C80.7603 50.9721 81.5584 49.0451 81.5584 47.0358C81.5584 45.0264 80.7603 43.0993 79.3395 41.6785C77.9188 40.2579 75.9918 39.4596 73.9826 39.4596" stroke="white" strokeWidth="4.13213" strokeLinecap="round" strokeLinejoin="round"/>
<path d="M492.705 43.8205C492.705 67.7827 473.28 87.2078 449.318 87.2078C425.356 87.2078 405.931 67.7827 405.931 43.8205C405.931 19.8582 425.356 0.433105 449.318 0.433105C473.28 0.433105 492.705 19.8582 492.705 43.8205Z" fill="#FF4D7B"/>
<path d="M443.417 56.4466H455.216M449.318 21.094V23.6191M465.388 27.7504L463.603 29.5357M472.044 43.8207H469.52M429.116 43.8207H426.591M435.033 29.5357L433.248 27.7504M440.388 52.7498C438.624 50.9839 437.421 48.7342 436.934 46.2851C436.448 43.836 436.698 41.2974 437.653 38.9904C438.609 36.6837 440.227 34.712 442.304 33.3247C444.38 31.9375 446.82 31.197 449.318 31.197C451.816 31.197 454.256 31.9375 456.332 33.3247C458.408 34.712 460.026 36.6837 460.983 38.9904C461.937 41.2974 462.187 43.836 461.702 46.2851C461.214 48.7342 460.012 50.9839 458.247 52.7498L456.863 54.131C456.072 54.9223 455.444 55.8617 455.016 56.8954C454.588 57.9292 454.367 59.0373 454.367 60.1562V61.4971C454.367 62.8365 453.836 64.121 452.888 65.0681C451.942 66.0154 450.657 66.5474 449.318 66.5474C447.979 66.5474 446.694 66.0154 445.748 65.0681C444.799 64.121 444.268 62.8365 444.268 61.4971V60.1562C444.268 57.8962 443.367 55.727 441.772 54.131L440.388 52.7498Z" stroke="white" strokeWidth="2.06606" strokeLinecap="round" strokeLinejoin="round"/>
<path d="M779.888 715.291C817.543 715.291 848.068 684.766 848.068 647.111C848.068 609.456 817.543 578.931 779.888 578.931C742.233 578.931 711.708 609.456 711.708 647.111C711.708 684.766 742.233 715.291 779.888 715.291Z" fill="#23A8EE"/>
<path d="M767.033 637.814L776.673 647.111L767.033 656.408M783.103 656.408H792.743M757.391 671.904H802.385C804.09 671.904 805.724 671.251 806.931 670.088C808.135 668.927 808.813 667.35 808.813 665.706V628.517C808.813 626.872 808.135 625.296 806.931 624.134C805.724 622.971 804.09 622.318 802.385 622.318H757.391C755.686 622.318 754.052 622.971 752.845 624.134C751.641 625.296 750.963 626.872 750.963 628.517V665.706C750.963 667.35 751.641 668.927 752.845 670.088C754.052 671.251 755.686 671.904 757.391 671.904Z" stroke="white" strokeWidth="4.13213" strokeLinecap="round" strokeLinejoin="round"/>
<defs>
<linearGradient id="paint0_linear_3895_185" x1="398.699" y1="-40.8878" x2="650.759" y2="686.367" gradientUnits="userSpaceOnUse">
<stop stopColor="#1B1C1A"/>
<stop offset="0.28632" stopColor="#1B1C1A" stopOpacity="0"/>
<stop offset="0.779141" stopColor="#1B1C1A" stopOpacity="0"/>
<stop offset="0.989219" stopColor="#1B1C1A"/>
</linearGradient>
</defs>
</svg>
